<?xml version="1.0" encoding="utf-8"?>
<!-- Generator: Adobe Illustrator 23.1.1, SVG Export Plug-In . SVG Version: 6.00 Build 0)  -->
<svg version="1.1" id="Layer_1" xmlns="http://www.w3.org/2000/svg" xmlns:xlink="http://www.w3.org/1999/xlink" x="0px" y="0px"
	 viewBox="0 0 457.1 349.3" style="enable-background:new 0 0 457.1 349.3;" xml:space="preserve">
<style type="text/css">
	.st0{fill:#FF0050;}
	.st1{fill:#181043;}
</style>
<g id="BG">
</g>
<g id="Gradient">
</g>
<g>
	<g>
		<path class="st0" d="M318,178.5l4.6,6.7c0.7,1,1.8,1.6,3,1.6h0.2c1.2,0,2.3-0.7,2.9-1.8c2.4-4.1,4.6-8.5,6.5-13
			c5.7-13.6,8.6-28,8.6-42.8c0-7.4-0.7-14.7-2.2-21.9c-1.4-7.1-3.6-14.2-6.5-20.9c-1.6-3.7-3.4-7.4-5.4-10.9l-0.4-0.7
			c-0.3-0.5-0.6-1-0.9-1.6l-2-3.2c-0.3-0.5-0.7-1-1-1.5l-1.8-2.6c-0.6-0.9-1.7-1.4-2.7-1.3c-1.1,0.2-2,0.9-2.3,2.1
			c-3.1,11.8-7.2,23.6-12,34.9c-12.5,29.5-32.7,59.4-56.9,84c-0.2,0.2-0.1,0.5-0.1,0.6s0.2,0.3,0.5,0.3h15.5c0.8,0,1.6-0.3,2.2-1
			c21.3-23.4,38.4-49.9,50.6-78.9c1.5-3.6,3-7.3,4.3-10.9c0.2-0.6,0.7-0.9,1.4-0.9c0.4-0.1,1.1,0.2,1.4,0.9
			c3.9,10.7,5.9,22,5.9,33.5c0,11.9-2.1,23.6-6.3,34.6c-0.2,0.4-0.6,0.8-1,0.8c-0.5,0.1-0.9-0.1-1.2-0.5l-10.4-14.7
			c-0.2-0.3-0.5-0.4-0.8-0.4s-0.6,0.2-0.7,0.4l-5.6,9.2c-0.4,0.7-0.4,1.6,0.1,2.3L318,178.5z"/>
		<g>
			<rect x="249.8" y="211.5" class="st1" width="12.9" height="72.3"/>
			<path class="st1" d="M240.4,237.2c0-14.4-11.4-25.7-25.9-25.7h-24.7v72.3h12.9v-20.9h11.7C229.2,262.9,240.4,251.8,240.4,237.2z
				 M202.7,250.9v-27.5h10.8c7.9,0,13.9,5.9,13.9,13.8s-6,13.8-13.9,13.8h-10.8V250.9z"/>
			<path class="st1" d="M293.7,211.5h-19.5v72.3h20.1c21.8,0,37.6-15.2,37.6-36.1C332,225.7,317,211.5,293.7,211.5z M292.7,271.8
				h-5.5v-48.4h4.9c17.1,0,26.9,8.8,26.9,24.2C319,261.9,308.2,271.8,292.7,271.8z"/>
			<path class="st1" d="M374.6,271l4.4,12.8h13.5l-25.6-72.3h-13.3L328,283.8h13.5l4.4-12.8H374.6z M360.2,229.3l10.2,29.4H350
				L360.2,229.3z"/>
			<path class="st1" d="M160.9,241.2l-1.6-0.5c-7.3-2.4-13.6-4.5-13.6-10.1c0-5.3,4.1-8.6,10.6-8.6c5.6,0,10,2.3,13.2,6.7l10.7-8.1
				c-5.2-5.3-11.8-10.1-23.9-10.1c-13.6,0-23.9,8.8-23.9,20.6c0,13.1,9.2,17,20.4,20.4l1.2,0.4c7.4,2.2,14.3,4.4,14.3,10.5
				c0,4.9-3.6,10.2-11.5,10.2c-6.5,0-12.3-3.5-16-9.6l-11.9,9.3c7.6,8.5,16.8,12.6,28,12.6c16.3,0,24.9-11.3,24.9-22.4
				C181.8,249,171.5,244.6,160.9,241.2z"/>
			<path class="st1" d="M90.3,211.5l-25.6,72.3h13.5l4.4-12.8h28.8l4.4,12.8h13.5l-25.6-72.3L90.3,211.5L90.3,211.5z M86.8,258.7
				L97,229.3l10.2,29.4H86.8z"/>
		</g>
	</g>
</g>
</svg>
